<?xml version="1.0" standalone="no"?>
<!DOCTYPE svg PUBLIC "-//W3C//DTD SVG 20010904//EN"
 "http://www.w3.org/TR/2001/REC-SVG-20010904/DTD/svg10.dtd">
<svg version="1.0" xmlns="http://www.w3.org/2000/svg"
 width="512.000000pt" height="512.000000pt" viewBox="0 0 512.000000 512.000000"
 preserveAspectRatio="xMidYMid meet">
<metadata>
Created by potrace 1.11, written by Peter Selinger 2001-2013
</metadata>
<g transform="translate(0.000000,512.000000) scale(0.100000,-0.100000)"
fill="#000000" stroke="none">
<path d="M2490 5104 c-46 -20 -84 -63 -103 -116 -9 -24 -46 -137 -82 -253 -37
-115 -70 -221 -75 -235 -5 -14 -36 -113 -70 -220 -34 -107 -74 -232 -88 -277
l-27 -82 -94 60 c-52 32 -129 81 -170 108 -360 231 -693 440 -717 448 -41 13
-112 6 -144 -14 -67 -44 -105 -127 -90 -198 6 -24 330 -843 385 -970 42 -98
42 -116 2 -114 -12 1 -35 -1 -52 -4 -16 -3 -82 -13 -145 -22 -63 -9 -133 -18
-155 -22 -22 -3 -49 -6 -60 -8 -33 -3 -139 -17 -160 -21 -19 -4 -56 -9 -132
-19 -175 -23 -384 -56 -404 -64 -61 -23 -110 -110 -104 -183 7 -92 35 -121
200 -208 55 -29 186 -99 290 -155 105 -56 231 -124 280 -150 50 -27 124 -67
165 -89 41 -23 87 -47 103 -55 15 -8 27 -18 27 -23 0 -8 -35 -50 -80 -97 -9
-9 -52 -56 -95 -106 -44 -49 -82 -92 -85 -95 -3 -3 -39 -43 -80 -90 -41 -46
-84 -94 -95 -106 -27 -30 -67 -74 -155 -174 -41 -46 -92 -103 -113 -125 -84
-90 -101 -194 -43 -270 57 -74 123 -90 251 -59 39 9 79 18 90 20 11 2 81 17
155 33 74 17 221 49 325 71 105 23 231 50 280 61 50 11 101 22 115 25 14 2 31
7 39 9 13 5 12 -136 -4 -490 -21 -475 -23 -683 -6 -720 32 -68 121 -113 199
-100 53 8 89 38 162 135 66 87 376 490 408 531 20 26 77 99 125 163 48 64 92
116 97 116 5 0 28 -26 53 -57 24 -32 143 -188 266 -348 122 -159 245 -321 274
-359 86 -115 148 -173 193 -180 88 -14 157 19 197 94 27 50 27 53 13 430 -10
239 -14 351 -21 587 l-7 202 62 -15 c34 -8 97 -21 139 -30 42 -8 92 -19 111
-24 19 -5 46 -11 60 -13 14 -3 43 -10 65 -15 22 -6 56 -13 76 -16 20 -3 42 -8
50 -10 8 -3 25 -8 39 -10 34 -7 45 -9 285 -62 116 -26 225 -46 244 -46 37 2
108 35 128 60 25 32 43 85 43 127 0 53 -28 105 -102 187 -31 35 -66 74 -78 88
-12 14 -54 61 -93 104 -109 120 -142 157 -292 326 -76 85 -155 174 -176 197
-22 23 -39 46 -39 51 0 5 12 15 28 23 15 8 56 30 92 50 36 20 115 62 175 94
61 32 157 84 215 115 58 31 184 99 280 150 96 51 190 104 208 117 104 77 88
247 -29 309 -27 14 -112 29 -274 49 -27 4 -61 8 -74 10 -13 2 -45 7 -70 11
-25 3 -57 8 -71 10 -63 9 -310 44 -355 49 -27 4 -77 10 -110 15 -33 5 -81 12
-107 15 -26 4 -58 10 -72 13 l-24 7 18 40 c10 22 107 262 215 533 214 534 216
542 176 621 -43 83 -150 120 -232 80 -20 -10 -245 -151 -500 -313 l-464 -296
-47 148 c-26 81 -64 199 -83 262 -20 63 -40 123 -45 132 -6 10 -10 23 -10 29
0 12 -128 419 -157 498 -17 46 -53 90 -90 109 -37 20 -115 23 -153 6z m148
-1897 c40 -127 76 -239 80 -249 6 -14 44 7 226 123 120 77 220 138 221 137 3
-3 -170 -443 -185 -470 -12 -22 -10 -23 160 -43 19 -3 53 -7 75 -10 22 -4 51
-8 65 -10 14 -2 45 -7 70 -11 66 -9 82 -11 115 -13 17 0 25 -5 20 -10 -6 -5
-109 -62 -230 -127 -121 -64 -222 -119 -225 -121 -2 -2 0 -7 5 -11 6 -4 44
-45 85 -92 41 -46 84 -94 95 -106 54 -58 151 -168 158 -180 6 -10 0 -11 -25
-3 -18 5 -46 12 -63 14 -16 3 -50 10 -75 16 -25 5 -112 25 -194 43 l-148 33 7
-216 c3 -119 8 -240 9 -269 l2 -53 -26 33 c-36 45 -193 252 -248 325 -26 35
-49 63 -52 63 -3 -1 -31 -35 -63 -78 -32 -42 -82 -108 -112 -147 -30 -38 -74
-96 -97 -127 -24 -32 -46 -58 -49 -58 -3 0 -5 21 -3 48 1 26 5 139 9 252 4
113 10 209 13 214 5 8 -53 4 -103 -8 -77 -19 -392 -86 -403 -86 -7 0 45 64
115 142 142 158 172 192 202 227 l21 24 -38 19 c-20 11 -59 33 -87 48 -89 49
-183 99 -242 129 -32 17 -67 37 -78 45 -20 15 -20 15 5 16 14 1 32 3 41 5 8 1
42 6 75 9 32 4 70 9 84 11 29 5 57 10 165 25 44 6 89 13 100 15 11 2 23 4 26
4 3 1 -38 110 -92 244 -53 133 -95 244 -93 246 2 2 12 -2 21 -11 15 -12 94
-63 237 -151 11 -7 55 -35 100 -64 55 -36 82 -49 86 -40 4 7 40 119 81 249 41
131 76 238 79 238 3 0 38 -105 78 -233z"/>
</g>
</svg>
